<svg width="90" height="28" xmlns="http://www.w3.org/2000/svg" viewBox="0 0 90 28" style="background: rgb(253, 253, 253);" preserveAspectRatio="xMidYMid"><defs><filter id="editing-hole" x="-100%" y="-100%" width="300%" height="300%"><feFlood flood-color="#bbcedd" result="black"></feFlood><feMorphology operator="dilate" radius="2" in="SourceGraphic" result="erode"></feMorphology><feGaussianBlur in="erode" stdDeviation="4" result="blur"></feGaussianBlur><feOffset in="blur" dx="2" dy="2" result="offset"></feOffset><feComposite operator="atop" in="offset" in2="black" result="merge"></feComposite><feComposite operator="in" in="merge" in2="SourceGraphic" result="inner-shadow"></feComposite></filter></defs><g filter="url(#editing-hole)"><g transform="translate(148.59001684188843, 103.88500022888184)"><path d="M3.66 0.18L3.66 0.18Q3.11 0.18 2.84-0.21L2.84-0.21L2.84-0.21Q2.56-0.61 2.56-1.16L2.56-1.16L2.56-1.16Q2.62-2.07 2.93-2.26L2.93-2.26L2.93-2.26Q3.23-2.44 4.09-2.44L4.09-2.44L4.09-2.44Q5.86-2.44 6.71-3.08L6.71-3.08L6.71-3.08Q7.56-3.72 7.78-4.67L7.78-4.67L7.78-4.67Q7.99-5.61 8.05-7.14L8.05-7.14L8.05-31.35L8.05-31.35Q7.99-32.88 7.78-33.82L7.78-33.82L7.78-33.82Q7.56-34.77 6.71-35.41L6.71-35.41L6.71-35.41Q5.86-36.05 4.09-36.05L4.09-36.05L3.72-36.05L3.72-36.05Q3.11-36.05 2.87-36.26L2.87-36.26L2.87-36.26Q2.62-36.48 2.56-37.33L2.56-37.33L2.56-37.33Q2.56-37.88 2.84-38.28L2.84-38.28L2.84-38.28Q3.11-38.67 3.66-38.67L3.66-38.67L3.66-38.67Q7.63-38.49 10.86-38.49L10.86-38.49L19.46-38.49L19.46-38.49Q22.81-38.49 24.89-38.00L24.89-38.00L24.89-38.00Q26.96-37.52 28.61-36.48L28.61-36.48L28.61-36.48Q30.20-35.44 31.11-33.64L31.11-33.64L31.11-33.64Q32.02-31.84 32.02-29.71L32.02-29.71L32.02-29.71Q32.02-25.93 29.55-23.70L29.55-23.70L29.55-23.70Q27.08-21.47 23.79-20.68L23.79-20.68L23.79-20.50L23.79-20.50Q26.96-20.50 29.55-19.25L29.55-19.25L29.55-19.25Q32.15-18.00 33.58-15.89L33.58-15.89L33.58-15.89Q35.01-13.79 35.01-11.35L35.01-11.35L35.01-11.35Q35.01-7.20 32.48-4.64L32.48-4.64L32.48-4.64Q29.95-2.07 26.14-1.01L26.14-1.01L26.14-1.01Q22.33 0.06 18.24 0.06L18.24 0.06L10.92 0L10.92 0Q7.63 0 3.66 0.18L3.66 0.18ZM14.09-21.72L16.65-21.72L16.65-21.72Q19.09-21.72 20.89-22.08L20.89-22.08L20.89-22.08Q22.69-22.45 24.09-24.03L24.09-24.03L24.09-24.03Q25.50-25.62 25.50-28.97L25.50-28.97L25.50-28.97Q25.50-36.23 18.36-36.23L18.36-36.23L14.09-36.23L14.09-21.72ZM18.48-2.38L18.48-2.38Q23.00-2.44 25.71-4.61L25.71-4.61L25.71-4.61Q28.43-6.77 28.43-11.71L28.43-11.71L28.43-11.71Q28.12-15.01 25.35-17.14L25.35-17.14L25.35-17.14Q22.57-19.28 16.59-19.28L16.59-19.28L14.09-19.28L14.09-7.14L14.09-7.14Q14.09-5.06 14.49-4.06L14.49-4.06L14.49-4.06Q14.88-3.05 15.77-2.71L15.77-2.71L15.77-2.71Q16.65-2.38 18.48-2.38L18.48-2.38ZM40.26 0.18L40.26 0.18Q39.83 0.18 39.56-0.18L39.56-0.18L39.56-0.18Q39.28-0.55 39.28-1.04L39.28-1.04L39.28-1.04Q39.34-1.83 39.62-1.98L39.62-1.98L39.62-1.98Q39.89-2.13 40.69-2.13L40.69-2.13L40.69-2.13Q42.27-2.13 42.94-2.68L42.94-2.68L42.94-2.68Q43.62-3.23 43.74-3.96L43.74-3.96L43.74-3.96Q43.86-4.70 43.86-6.28L43.86-6.28L43.86-36.05L43.86-36.05Q43.86-37.64 43.77-38.37L43.77-38.37L43.77-38.37Q43.68-39.10 43.01-39.65L43.01-39.65L43.01-39.65Q42.33-40.20 40.75-40.20L40.75-40.20L40.75-40.20Q40.02-40.20 39.65-40.41L39.65-40.41L39.65-40.41Q39.28-40.63 39.28-41.42L39.28-41.42L39.28-41.42Q39.28-41.78 39.53-42.12L39.53-42.12L39.53-42.12Q39.77-42.46 40.26-42.52L40.26-42.52L40.26-42.52Q44.10-43.07 46.85-44.10L46.85-44.10L46.85-44.10Q47.70-44.41 48.25-44.47L48.25-44.47L48.43-44.47L48.43-44.47Q49.41-44.47 49.41-43.31L49.41-43.31L49.41-6.28L49.41-6.28Q49.41-4.70 49.53-3.96L49.53-3.96L49.53-3.96Q49.65-3.23 50.33-2.68L50.33-2.68L50.33-2.68Q51.00-2.13 52.58-2.13L52.58-2.13L52.95-2.13L52.95-2.13Q53.44-2.13 53.68-1.95L53.68-1.95L53.68-1.95Q53.92-1.77 53.98-1.04L53.98-1.04L53.98-1.04Q53.98-0.55 53.74-0.18L53.74-0.18L53.74-0.18Q53.50 0.18 53.01 0.18L53.01 0.18L53.01 0.18Q49.47 0 46.60 0L46.60 0L46.60 0Q43.86 0 40.26 0.18L40.26 0.18ZM72.04 0.73L72.04 0.73Q67.89 0.73 64.66-1.25L64.66-1.25L64.66-1.25Q61.43-3.23 59.63-6.50L59.63-6.50L59.63-6.50Q57.83-9.76 57.83-13.42L57.83-13.42L57.83-13.42Q57.83-18.00 59.96-21.38L59.96-21.38L59.96-21.38Q62.10-24.77 65.39-26.57L65.39-26.57L65.39-26.57Q68.69-28.36 72.04-28.36L72.04-28.36L72.04-28.36Q76.19-28.36 79.42-26.38L79.42-26.38L79.42-26.38Q82.66-24.40 84.45-21.14L84.45-21.14L84.45-21.14Q86.25-17.87 86.25-14.21L86.25-14.21L86.25-14.21Q86.25-9.64 84.09-6.25L84.09-6.25L84.09-6.25Q81.92-2.87 78.63-1.07L78.63-1.07L78.63-1.07Q75.33 0.73 72.04 0.73L72.04 0.73ZM72.04-1.52L72.04-1.52Q76.19-1.52 78.11-5.06L78.11-5.06L78.11-5.06Q80.03-8.60 80.03-14.21L80.03-14.21L80.03-14.21Q80.03-19.46 78.05-22.78L78.05-22.78L78.05-22.78Q76.07-26.11 72.04-26.11L72.04-26.11L72.04-26.11Q67.83-26.11 65.94-22.63L65.94-22.63L65.94-22.63Q64.05-19.15 64.05-13.54L64.05-13.54L64.05-13.54Q64.05-8.30 66.00-4.91L66.00-4.91L66.00-4.91Q67.95-1.52 72.04-1.52L72.04-1.52ZM103.27 13.30L103.27 13.30Q90.40 13.30 90.40 5.98L90.40 5.98L90.40 5.98Q90.40 3.90 91.71 2.38L91.71 2.38L91.71 2.38Q93.02 0.85 95.10 0.85L95.10 0.85L95.10 0.85Q95.95 0.85 96.69 1.19L96.69 1.19L96.69 1.19Q97.42 1.52 97.87 1.98L97.87 1.98L97.87 1.98Q98.33 2.44 98.33 2.68L98.33 2.68L98.33 2.68Q98.33 2.75 97.81 3.26L97.81 3.26L97.81 3.26Q97.29 3.78 96.90 4.54L96.90 4.54L96.90 4.54Q96.50 5.31 96.50 6.34L96.50 6.34L96.50 6.34Q96.50 11.04 104.55 11.04L104.55 11.04L104.55 11.04Q109.19 11.04 111.69 9.42L111.69 9.42L111.69 9.42Q114.19 7.81 114.19 4.64L114.19 4.64L114.19 4.64Q114.19 2.68 112.73 1.71L112.73 1.71L112.73 1.71Q111.26 0.73 109.07 0.46L109.07 0.46L109.07 0.46Q106.87 0.18 103.33 0.12L103.33 0.12L103.33 0.12Q99.00 0 97.17-0.30L97.17-0.30L97.17-0.30Q94.79-0.73 93.48-1.83L93.48-1.83L93.48-1.83Q92.17-2.93 92.17-5.25L92.17-5.25L92.17-5.25Q92.17-7.63 93.85-9.24L93.85-9.24L93.85-9.24Q95.53-10.86 98.64-10.86L98.64-10.86L98.64-10.86Q95.04-12.26 93.57-14.37L93.57-14.37L93.57-14.37Q92.11-16.47 92.11-19.09L92.11-19.09L92.11-19.09Q92.11-21.72 93.60-23.85L93.60-23.85L93.60-23.85Q95.10-25.99 97.78-27.21L97.78-27.21L97.78-27.21Q100.47-28.43 103.88-28.43L103.88-28.43L103.88-28.43Q108.27-28.43 110.65-27.21L110.65-27.21L119.01-28.79L119.13-28.79L119.13-28.79Q120.17-28.79 120.17-27.33L120.17-27.33L120.17-27.33Q120.17-26.47 119.90-25.74L119.90-25.74L119.90-25.74Q119.62-25.01 119.25-25.01L119.25-25.01L113.22-25.25L113.22-25.13L113.22-25.13Q114.25-24.09 114.98-22.39L114.98-22.39L114.98-22.39Q115.72-20.68 115.72-19.15L115.72-19.15L115.72-19.15Q115.72-16.35 114.10-14.18L114.10-14.18L114.10-14.18Q112.48-12.02 109.86-10.86L109.86-10.86L109.86-10.86Q107.24-9.70 104.37-9.70L104.37-9.70L101.69-9.70L101.69-9.70Q98.52-9.70 97.08-9.09L97.08-9.09L97.08-9.09Q95.65-8.48 95.65-7.08L95.65-7.08L95.65-7.08Q95.65-5.92 96.44-5.37L96.44-5.37L96.44-5.37Q97.23-4.82 99.19-4.70L99.19-4.70L107.54-4.39L107.54-4.39Q113.95-4.15 116.78-2.35L116.78-2.35L116.78-2.35Q119.62-0.55 119.62 3.11L119.62 3.11L119.62 3.11Q119.62 7.87 115.17 10.58L115.17 10.58L115.17 10.58Q110.72 13.30 103.27 13.30L103.27 13.30ZM103.88-11.47L103.88-11.47Q106.75-11.47 108.49-13.51L108.49-13.51L108.49-13.51Q110.23-15.55 110.23-19.15L110.23-19.15L110.23-19.15Q110.23-22.51 108.43-24.52L108.43-24.52L108.43-24.52Q106.63-26.54 103.82-26.54L103.82-26.54L103.82-26.54Q101.08-26.54 99.31-24.58L99.31-24.58L99.31-24.58Q97.54-22.63 97.54-19.28L97.54-19.28L97.54-19.28Q97.54-15.62 99.31-13.54L99.31-13.54L99.31-13.54Q101.08-11.47 103.88-11.47L103.88-11.47ZM123.83 0.18L123.83 0.18Q123.34 0.18 123.10-0.18L123.10-0.18L123.10-0.18Q122.85-0.55 122.85-1.04L122.85-1.04L122.85-1.04Q122.91-1.77 123.13-1.95L123.13-1.95L123.13-1.95Q123.34-2.13 123.89-2.13L123.89-2.13L123.89-2.13Q125.29-2.13 125.96-2.32L125.96-2.32L125.96-2.32Q126.64-2.50 127.15-3.08L127.15-3.08L127.15-3.08Q127.67-3.66 128.40-5.06L128.40-5.06L136.82-22.57L136.82-22.57Q137.55-24.16 137.55-24.77L137.55-24.77L137.55-24.77Q137.55-25.38 137.04-25.53L137.04-25.53L137.04-25.53Q136.52-25.68 135.24-25.68L135.24-25.68L132.67-25.68L132.67-25.68Q130.60-25.68 129.47-25.16L129.47-25.16L129.47-25.16Q128.34-24.64 127.67-23.15L127.67-23.15L127.67-23.15Q127.00-21.66 126.64-18.61L126.64-18.61L126.64-18.61Q126.57-18.12 126.06-17.87L126.06-17.87L126.06-17.87Q125.54-17.63 124.81-17.63L124.81-17.63L124.81-17.63Q124.32-17.63 123.89-17.93L123.89-17.93L123.89-17.93Q123.46-18.24 123.46-18.73L123.46-18.73L124.50-26.23L124.50-26.23Q124.62-27.08 124.96-27.36L124.96-27.36L124.96-27.36Q125.29-27.63 125.90-27.63L125.90-27.63L142.62-27.63L142.62-27.63Q143.65-27.63 146.09-27.75L146.09-27.75L147.56-27.82L147.56-27.82Q147.99-27.82 148.26-27.45L148.26-27.45L148.26-27.45Q148.53-27.08 148.53-26.60L148.53-26.60L148.53-26.60Q148.47-25.86 148.23-25.68L148.23-25.68L148.23-25.68Q147.99-25.50 147.50-25.50L147.50-25.50L147.50-25.50Q146.09-25.50 145.39-25.31L145.39-25.31L145.39-25.31Q144.69-25.13 144.17-24.55L144.17-24.55L144.17-24.55Q143.65-23.97 142.92-22.57L142.92-22.57L134.57-5.06L134.57-5.06Q133.83-3.54 133.83-2.87L133.83-2.87L133.83-2.87Q133.83-2.26 134.35-2.10L134.35-2.10L134.35-2.10Q134.87-1.95 136.15-1.95L136.15-1.95L139.57-1.95L139.57-1.95Q141.64-1.95 142.77-2.47L142.77-2.47L142.77-2.47Q143.90-2.99 144.57-4.48L144.57-4.48L144.57-4.48Q145.24-5.98 145.61-9.03L145.61-9.03L145.61-9.03Q145.67-9.52 146.19-9.76L146.19-9.76L146.19-9.76Q146.70-10.00 147.44-10.00L147.44-10.00L147.44-10.00Q147.92-10.00 148.35-9.70L148.35-9.70L148.35-9.70Q148.78-9.39 148.78-8.91L148.78-8.91L147.74-1.40L147.74-1.40Q147.62-0.55 147.28-0.27L147.28-0.27L147.28-0.27Q146.95 0 146.34 0L146.34 0L128.71 0L128.71 0Q127.73 0 125.17 0.12L125.17 0.12L123.83 0.18ZM154.27 0.18L154.27 0.18Q153.84 0.18 153.57-0.18L153.57-0.18L153.57-0.18Q153.29-0.55 153.29-1.04L153.29-1.04L153.29-1.04Q153.35-1.83 153.66-1.98L153.66-1.98L153.66-1.98Q153.96-2.13 154.76-2.13L154.76-2.13L154.76-2.13Q156.34-2.13 157.01-2.68L157.01-2.68L157.01-2.68Q157.68-3.23 157.78-3.96L157.78-3.96L157.78-3.96Q157.87-4.70 157.87-6.28L157.87-6.28L157.87-20.25L157.87-20.25Q157.87-21.84 157.78-22.57L157.78-22.57L157.78-22.57Q157.68-23.30 157.01-23.85L157.01-23.85L157.01-23.85Q156.34-24.40 154.76-24.40L154.76-24.40L154.76-24.40Q154.02-24.40 153.66-24.61L153.66-24.61L153.66-24.61Q153.29-24.83 153.29-25.62L153.29-25.62L153.29-25.62Q153.29-25.99 153.54-26.32L153.54-26.32L153.54-26.32Q153.78-26.66 154.27-26.72L154.27-26.72L154.27-26.72Q158.11-27.27 160.86-28.30L160.86-28.30L160.86-28.30Q161.71-28.61 162.26-28.67L162.26-28.67L162.44-28.67L162.44-28.67Q163.42-28.67 163.42-27.51L163.42-27.51L163.42-6.28L163.42-6.28Q163.42-4.70 163.54-3.96L163.54-3.96L163.54-3.96Q163.66-3.23 164.33-2.68L164.33-2.68L164.33-2.68Q165.00-2.13 166.59-2.13L166.59-2.13L166.96-2.13L166.96-2.13Q167.44-2.13 167.69-1.95L167.69-1.95L167.69-1.95Q167.93-1.77 167.99-1.04L167.99-1.04L167.99-1.04Q167.99-0.55 167.75-0.18L167.75-0.18L167.75-0.18Q167.51 0.18 167.02 0.18L167.02 0.18L167.02 0.18Q163.48 0 160.61 0L160.61 0L160.61 0Q157.87 0 154.27 0.18L154.27 0.18ZM160.31-35.44L160.31-35.44Q158.60-35.44 157.44-36.51L157.44-36.51L157.44-36.51Q156.28-37.58 156.28-39.16L156.28-39.16L156.28-39.16Q156.28-40.56 157.68-41.66L157.68-41.66L157.68-41.66Q159.09-42.76 160.86-42.76L160.86-42.76L160.86-42.76Q162.38-42.76 163.36-41.69L163.36-41.69L163.36-41.69Q164.33-40.63 164.33-38.98L164.33-38.98L164.33-38.98Q164.33-37.52 163.17-36.48L163.17-36.48L163.17-36.48Q162.02-35.44 160.31-35.44L160.31-35.44ZM186.05 0.73L186.05 0.73Q181.90 0.73 178.67-1.25L178.67-1.25L178.67-1.25Q175.44-3.23 173.64-6.50L173.64-6.50L173.64-6.50Q171.84-9.76 171.84-13.42L171.84-13.42L171.84-13.42Q171.84-18.00 173.97-21.38L173.97-21.38L173.97-21.38Q176.11-24.77 179.40-26.57L179.40-26.57L179.40-26.57Q182.69-28.36 186.05-28.36L186.05-28.36L186.05-28.36Q190.20-28.36 193.43-26.38L193.43-26.38L193.43-26.38Q196.66-24.40 198.46-21.14L198.46-21.14L198.46-21.14Q200.26-17.87 200.26-14.21L200.26-14.21L200.26-14.21Q200.26-9.64 198.10-6.25L198.10-6.25L198.10-6.25Q195.93-2.87 192.64-1.07L192.64-1.07L192.64-1.07Q189.34 0.73 186.05 0.73L186.05 0.73ZM186.05-1.52L186.05-1.52Q190.20-1.52 192.12-5.06L192.12-5.06L192.12-5.06Q194.04-8.60 194.04-14.21L194.04-14.21L194.04-14.21Q194.04-19.46 192.06-22.78L192.06-22.78L192.06-22.78Q190.08-26.11 186.05-26.11L186.05-26.11L186.05-26.11Q181.84-26.11 179.95-22.63L179.95-22.63L179.95-22.63Q178.06-19.15 178.06-13.54L178.06-13.54L178.06-13.54Q178.06-8.30 180.01-4.91L180.01-4.91L180.01-4.91Q181.96-1.52 186.05-1.52L186.05-1.52Z" fill="#2da9ff"></path></g></g><style>text {
  font-size: 64px;
  font-family: Arial Black;
  dominant-baseline: central;
  text-anchor: middle;
}</style></svg>